<svg width="141" height="43" viewBox="0 0 141 43" fill="none" xmlns="http://www.w3.org/2000/svg">
<g id="Amazon Logo 1" clip-path="url(#clip0_3678_11203)">
<path id="path8" d="M87.3538 33.3978C79.2182 39.3944 67.426 42.5938 57.2732 42.5938C43.0373 42.5938 30.2214 37.3285 20.5256 28.5713C19.7639 27.8826 20.4464 26.9441 21.3605 27.4804C31.8242 33.5684 44.762 37.231 58.1264 37.231C67.1396 37.231 77.0547 35.3662 86.1716 31.4964C87.5488 30.9114 88.7006 32.3984 87.3538 33.3978Z" fill="#FF9900"/>
<path id="path10" d="M90.7361 29.528C89.7001 28.1994 83.8619 28.9003 81.2414 29.2111C80.4431 29.3086 80.3212 28.6138 81.0403 28.1141C85.6902 24.8416 93.32 25.7862 94.2097 26.8831C95.0995 27.9861 93.9782 35.6343 89.6087 39.2846C88.9383 39.8453 88.2984 39.5467 88.5971 38.8032C89.5782 36.3534 91.7782 30.8626 90.7361 29.528Z" fill="#FF9900"/>
<path id="path12" d="M81.4248 5.01131V1.83018C81.4248 1.34874 81.7904 1.02576 82.2292 1.02576H96.4712C96.9282 1.02576 97.2939 1.35484 97.2939 1.83018V4.55425C97.2878 5.01131 96.9039 5.60854 96.2213 6.55313L88.8413 17.0899C91.5837 17.0228 94.4784 17.4311 96.9648 18.8328C97.5255 19.1497 97.6778 19.6128 97.7205 20.0699V23.4643C97.7205 23.9275 97.2086 24.4699 96.6723 24.1895C92.2906 21.892 86.4707 21.6422 81.6259 24.2139C81.1323 24.482 80.6143 23.9458 80.6143 23.4826V20.2588C80.6143 19.7408 80.6204 18.8572 81.1384 18.071L89.6884 5.80964H82.2475C81.7904 5.80964 81.4248 5.48666 81.4248 5.01131Z" fill="#221F1F"/>
<path id="path14" d="M29.4721 24.8599H25.1392C24.7248 24.8294 24.3957 24.5186 24.3652 24.1225V1.88501C24.3652 1.44014 24.737 1.08668 25.2001 1.08668H29.2405C29.661 1.10495 29.9962 1.42795 30.0267 1.83016V4.73706H30.1059C31.1602 1.92767 33.1408 0.617432 35.81 0.617432C38.5219 0.617432 40.216 1.92767 41.4349 4.73706C42.4831 1.92767 44.8659 0.617432 47.4193 0.617432C49.2354 0.617432 51.222 1.36701 52.4348 3.04899C53.8059 4.91988 53.5256 7.63786 53.5256 10.0207L53.5195 24.0554C53.5195 24.5003 53.1478 24.8599 52.6846 24.8599H48.3578C47.9251 24.8294 47.5778 24.482 47.5778 24.0554V12.2694C47.5778 11.3309 47.6631 8.99076 47.4559 8.10102C47.1329 6.60796 46.1639 6.18746 44.9085 6.18746C43.8603 6.18746 42.7634 6.88829 42.3185 8.00961C41.8737 9.13093 41.9163 11.0079 41.9163 12.2694V24.0554C41.9163 24.5003 41.5446 24.8599 41.0814 24.8599H36.7546C36.3158 24.8294 35.9745 24.482 35.9745 24.0554L35.9684 12.2694C35.9684 9.78909 36.3767 6.13871 33.2992 6.13871C30.1851 6.13871 30.307 9.69768 30.307 12.2694V24.0554C30.307 24.5003 29.9353 24.8599 29.4721 24.8599Z" fill="#221F1F"/>
<path id="path16" d="M109.555 0.617432C115.985 0.617432 119.464 6.13871 119.464 13.1591C119.464 19.9419 115.619 25.323 109.555 25.323C103.242 25.323 99.8047 19.8017 99.8047 12.9215C99.8047 5.99854 103.284 0.617432 109.555 0.617432ZM109.592 5.15756C106.399 5.15756 106.197 9.50876 106.197 12.2206C106.197 14.9386 106.155 20.7402 109.555 20.7402C112.913 20.7402 113.072 16.0599 113.072 13.2079C113.072 11.3309 112.992 9.08827 112.426 7.30878C111.938 5.76088 110.969 5.15756 109.592 5.15756Z" fill="#221F1F"/>
<path id="path18" d="M127.801 24.8599H123.486C123.054 24.8294 122.706 24.482 122.706 24.0554L122.7 1.81188C122.737 1.40357 123.096 1.08668 123.535 1.08668H127.551C127.929 1.10495 128.24 1.36092 128.325 1.70828V5.1088H128.404C129.617 2.06783 131.317 0.617432 134.309 0.617432C136.254 0.617432 138.149 1.31826 139.368 3.2379C140.501 5.01739 140.501 8.00961 140.501 10.1608V24.159C140.452 24.5491 140.093 24.8599 139.666 24.8599H135.321C134.925 24.8294 134.596 24.5369 134.553 24.159V12.0805C134.553 9.64893 134.834 6.08995 131.841 6.08995C130.787 6.08995 129.818 6.79688 129.337 7.86944C128.727 9.22843 128.648 10.5813 128.648 12.0805V24.0554C128.642 24.5003 128.264 24.8599 127.801 24.8599Z" fill="#221F1F"/>
<path id="use28" d="M70.0714 14.2377V13.2992C66.939 13.2992 63.6299 13.9696 63.6299 17.6626C63.6299 19.5335 64.5989 20.8011 66.2626 20.8011C67.4814 20.8011 68.5722 20.0515 69.2609 18.8327C70.114 17.3335 70.0714 15.9258 70.0714 14.2377ZM74.4409 24.7988C74.1545 25.0548 73.74 25.0731 73.4171 24.9024C71.9789 23.708 71.7229 23.1534 70.9307 22.0138C68.5539 24.4393 66.872 25.1645 63.7883 25.1645C60.1441 25.1645 57.3042 22.9157 57.3042 18.4122C57.3042 14.8959 59.2117 12.5009 61.9235 11.3308C64.2759 10.2948 67.5606 10.112 70.0714 9.82557V9.26491C70.0714 8.235 70.1506 7.01618 69.5473 6.12644C69.0171 5.32811 68.0055 4.99902 67.1157 4.99902C65.4642 4.99902 63.9895 5.84611 63.6299 7.60121C63.5568 7.99124 63.2703 8.37517 62.8803 8.39345L58.6754 7.94248C58.3219 7.86326 57.9319 7.57684 58.0294 7.03446C58.9984 1.93978 63.5994 0.404053 67.7191 0.404053C69.8276 0.404053 72.5822 0.964712 74.2459 2.56137C76.3544 4.52977 76.1533 7.15634 76.1533 10.0145V16.7668C76.1533 18.7961 76.9943 19.6859 77.7866 20.7828C78.0669 21.1728 78.1278 21.6421 77.7744 21.9346C76.8907 22.672 75.3184 24.0432 74.4531 24.811L74.4409 24.7988Z" fill="#221F1F"/>
<path id="path30" d="M13.2677 14.2377V13.2992C10.1353 13.2992 6.82619 13.9696 6.82619 17.6626C6.82619 19.5335 7.79515 20.8011 9.45885 20.8011C10.6777 20.8011 11.7685 20.0515 12.4572 18.8327C13.3103 17.3335 13.2677 15.9258 13.2677 14.2377ZM17.6372 24.7988C17.3507 25.0548 16.9363 25.0731 16.6134 24.9024C15.1751 23.708 14.9192 23.1534 14.1269 22.0138C11.7502 24.4393 10.0683 25.1645 6.98463 25.1645C3.34035 25.1645 0.500488 22.9157 0.500488 18.4122C0.500488 14.8959 2.40795 12.5009 5.11983 11.3308C7.47216 10.2948 10.7569 10.112 13.2677 9.82557V9.26491C13.2677 8.235 13.3469 7.01618 12.7436 6.12644C12.2134 5.32811 11.2018 4.99902 10.312 4.99902C8.66052 4.99902 7.18574 5.84611 6.82619 7.60121C6.75306 7.99124 6.46663 8.37517 6.07661 8.39345L1.87167 7.94248C1.51821 7.86326 1.12818 7.57684 1.22569 7.03446C2.19465 1.93978 6.79572 0.404053 10.9153 0.404053C13.0239 0.404053 15.7785 0.964712 17.4422 2.56137C19.5507 4.52977 19.3496 7.15634 19.3496 10.0145V16.7668C19.3496 18.7961 20.1906 19.6859 20.9828 20.7828C21.2632 21.1728 21.3241 21.6421 20.9707 21.9346C20.087 22.672 18.5147 24.0432 17.6494 24.811L17.6372 24.7988Z" fill="#221F1F"/>
</g>
<defs>
<clipPath id="clip0_3678_11203">
<rect width="140.168" height="42.306" fill="white" transform="translate(0.416016 0.346924)"/>
</clipPath>
</defs>
</svg>
