<svg width="117" height="91" viewBox="0 0 117 91" fill="none" xmlns="http://www.w3.org/2000/svg">
<g id="Wipro Logo 1" clip-path="url(#clip0_3678_11237)">
<path id="path999" d="M105.237 35.7517C105.88 38.2002 108.39 39.6694 110.869 38.996C113.317 38.3533 114.786 35.8435 114.113 33.3643C113.47 30.9158 110.961 29.4466 108.481 30.12C106.063 30.7933 104.594 33.3031 105.237 35.7517Z" fill="#2A4C87"/>
<path id="path1001" d="M99.0238 40.6488C100.677 40.1897 101.687 38.4757 101.227 36.8229C100.768 35.1701 99.0544 34.1601 97.4016 34.6192C95.7488 35.0783 94.7388 36.7923 95.1979 38.445C95.6264 40.0978 97.3404 41.0773 99.0238 40.6488Z" fill="#2A4C87"/>
<path id="path1003" d="M89.842 42.2404C91.0662 41.9037 91.8008 40.6488 91.4641 39.4245C91.1275 38.2002 89.8726 37.4657 88.6483 37.8024C87.424 38.139 86.6894 39.3939 87.0261 40.6182C87.3628 41.8425 88.6177 42.5771 89.842 42.2404Z" fill="#2A4C87"/>
<path id="path1005" d="M82.7101 43.3116C83.4753 43.0973 83.9344 42.3015 83.7508 41.5364C83.5671 40.7712 82.7407 40.3121 81.9756 40.4957C81.2104 40.71 80.7513 41.5057 80.9349 42.2709C81.1186 43.0361 81.9143 43.4952 82.7101 43.3116Z" fill="#2E4E88"/>
<path id="path1007" d="M101.84 26.4471C103.003 28.4365 105.543 29.1405 107.533 27.9774C109.522 26.8144 110.226 24.274 109.063 22.2845C107.9 20.2951 105.36 19.5911 103.37 20.7542C101.381 21.9172 100.677 24.4576 101.84 26.4471Z" fill="#1F3D70"/>
<path id="path1009" d="M92.6268 31.7422C93.4226 33.1501 95.1978 33.6092 96.6058 32.8134C98.0137 32.0176 98.4728 30.2424 97.677 28.8345C96.8812 27.4266 95.106 26.9675 93.6981 27.7632C92.3208 28.559 91.8311 30.3342 92.6268 31.7422Z" fill="#1F3D70"/>
<path id="path1011" d="M86.0771 33.1194C85.067 33.7009 84.7304 34.9558 85.3119 35.9659C85.8934 36.9759 87.1483 37.3126 88.1583 36.731C89.1684 36.1495 89.5051 34.8946 88.9235 33.8846C88.3726 32.9052 87.0871 32.5685 86.0771 33.1194Z" fill="#1F3D70"/>
<path id="path1013" d="M80.231 37.3432C79.5882 37.7105 79.3434 38.5369 79.7106 39.1796C80.0779 39.8224 80.9043 40.0672 81.5471 39.7C82.1898 39.3327 82.4347 38.5063 82.0674 37.8635C81.7001 37.2208 80.8737 36.9759 80.231 37.3432Z" fill="#1F3D70"/>
<path id="path1015" d="M101.381 18.2751C102.85 16.8059 102.85 14.4492 101.381 12.98C99.9116 11.5109 97.5549 11.5109 96.0857 12.98C94.6166 14.4492 94.6166 16.8059 96.0857 18.2751C97.5243 19.7442 99.9116 19.7442 101.381 18.2751Z" fill="#194C88"/>
<path id="path1017" d="M92.2289 22.1009C91.1577 21.0297 89.4437 21.0297 88.403 22.1009C87.3318 23.1722 87.3318 24.8862 88.403 25.9268C89.4743 26.9981 91.1883 26.9981 92.2289 25.9268C93.3002 24.8556 93.3002 23.1416 92.2289 22.1009Z" fill="#194C88"/>
<path id="path1019" d="M82.4347 29.2323C81.7001 29.9669 81.7001 31.1606 82.4347 31.8952C83.1693 32.6297 84.363 32.6297 85.0975 31.8952C85.8321 31.1606 85.8321 29.9669 85.0975 29.2629C84.363 28.4978 83.1693 28.4978 82.4347 29.2323Z" fill="#194C88"/>
<path id="path1021" d="M77.8131 36.5169C78.3028 37.0066 79.0986 37.0066 79.5883 36.5169C80.078 36.0272 80.078 35.2314 79.5883 34.7417C79.0986 34.252 78.3028 34.252 77.8131 34.7417C77.3234 35.2314 77.3234 36.0272 77.8131 36.5169Z" fill="#194C88"/>
<path id="path1023" d="M88.1887 11.9699C89.8721 12.9493 92.0452 12.3678 93.0247 10.6844C94.0041 9.00101 93.4226 6.82791 91.7392 5.84848C90.0558 4.86905 87.8827 5.45059 86.9033 7.13398C85.8932 8.81737 86.4747 10.9905 88.1887 11.9699Z" fill="#3468A3"/>
<path id="path1025" d="M81.8533 17.9383C81.1494 19.132 81.5779 20.6623 82.7716 21.3663C83.9652 22.0703 85.4956 21.6418 86.1995 20.4481C86.9035 19.2544 86.475 17.7241 85.2813 17.0201C84.057 16.3161 82.5267 16.7446 81.8533 17.9383Z" fill="#3468A3"/>
<path id="path1027" d="M80.2005 25.7738C79.4048 25.3146 78.3947 25.5901 77.9356 26.3859C77.4765 27.1817 77.752 28.1917 78.5478 28.6508C79.3435 29.1099 80.3536 28.8345 80.8127 28.0387C81.2718 27.2429 80.9963 26.2329 80.2005 25.7738Z" fill="#3468A3"/>
<path id="path1029" d="M76.3441 32.446C75.7932 32.14 75.0893 32.3236 74.7832 32.8745C74.4771 33.4255 74.6608 34.1294 75.2117 34.4355C75.7626 34.7416 76.4666 34.5579 76.7726 34.007C77.0787 33.4561 76.8951 32.7521 76.3441 32.446Z" fill="#3468A3"/>
<path id="path1031" d="M78.8847 7.89922C80.6599 8.38893 82.4963 7.31768 82.9554 5.54247C83.4451 3.76726 82.3739 1.93083 80.5987 1.47173C78.8235 1.01262 76.9871 2.05326 76.5279 3.82847C76.0382 5.60369 77.1095 7.44011 78.8847 7.89922Z" fill="#4C8DCB"/>
<path id="path1033" d="M76.0685 18.3668C77.2928 18.7035 78.5477 17.969 78.8844 16.7447C79.2211 15.5204 78.4865 14.2655 77.2622 13.9288C76.0379 13.5921 74.783 14.3267 74.4464 15.551C74.1403 16.7753 74.8443 18.0302 76.0685 18.3668Z" fill="#4C8DCB"/>
<path id="path1035" d="M73.865 26.6307C74.6914 26.845 75.5484 26.3552 75.7627 25.5289C75.9769 24.7025 75.4872 23.8455 74.6608 23.6312C73.8344 23.417 72.9774 23.9067 72.7632 24.7331C72.5489 25.5289 73.0386 26.3859 73.865 26.6307Z" fill="#4C8DCB"/>
<path id="path1037" d="M71.4164 31.7728C71.2634 32.3237 71.6 32.9052 72.151 33.0583C72.7019 33.2113 73.2834 32.8746 73.4365 32.3237C73.5895 31.7728 73.2528 31.1913 72.7019 31.0382C72.1204 30.8852 71.5388 31.2219 71.4164 31.7728Z" fill="#4C8DCB"/>
<path id="path1039" d="M68.784 6.36884C70.498 6.36884 71.906 4.96092 71.906 3.24692C71.906 1.53293 70.498 0.125 68.784 0.125C67.07 0.125 65.6621 1.53293 65.6621 3.24692C65.6621 4.99153 67.07 6.36884 68.784 6.36884Z" fill="#3498B3"/>
<path id="path1041" d="M68.7839 13.0411C67.6209 13.0411 66.7026 13.9593 66.7026 15.1224C66.7026 16.2855 67.6209 17.2037 68.7839 17.2037C69.947 17.2037 70.8652 16.2855 70.8652 15.1224C70.8652 13.99 69.947 13.0411 68.7839 13.0411Z" fill="#3498B3"/>
<path id="path1043" d="M70.2532 24.3964C70.2532 23.6006 69.6105 22.9272 68.7841 22.9272C67.9577 22.9272 67.3149 23.57 67.3149 24.3964C67.3149 25.2228 67.9577 25.8655 68.7841 25.8655C69.6105 25.8655 70.2532 25.1922 70.2532 24.3964Z" fill="#3498B3"/>
<path id="path1045" d="M68.7843 30.6403C68.264 30.6403 67.8354 31.0688 67.8354 31.5891C67.8354 32.1094 68.264 32.5379 68.7843 32.5379C69.3046 32.5379 69.7331 32.1094 69.7331 31.5891C69.7331 31.0688 69.3046 30.6403 68.7843 30.6403Z" fill="#3498B3"/>
<path id="path1047" d="M58.5921 7.53191C60.153 7.10341 61.0712 5.51184 60.6427 3.95088C60.2142 2.38992 58.6227 1.47171 57.0617 1.90021C55.5008 2.3287 54.5825 3.92027 55.011 5.48123C55.4395 7.01159 57.0617 7.9298 58.5921 7.53191Z" fill="#0AA496"/>
<path id="path1049" d="M59.1121 16.6528C59.3876 17.6628 60.3976 18.2443 61.4076 17.9689C62.4177 17.6934 62.9992 16.6834 62.7237 15.6733C62.4483 14.6633 61.4382 14.0818 60.4282 14.3572C59.4488 14.6327 58.8366 15.6733 59.1121 16.6528Z" fill="#0AA496"/>
<path id="path1051" d="M62.0201 25.4983C62.2037 26.2329 62.9689 26.6614 63.6729 26.4471C64.4075 26.2635 64.8359 25.4983 64.6217 24.7943C64.4381 24.0598 63.6729 23.6313 62.9689 23.8455C62.2343 24.0292 61.8365 24.7637 62.0201 25.4983Z" fill="#0AA496"/>
<path id="path1053" d="M64.3764 32.293C64.4988 32.7521 64.9579 32.9969 65.3864 32.8745C65.8455 32.7521 66.0904 32.293 65.9679 31.8645C65.8455 31.4054 65.3864 31.1605 64.9579 31.2829C64.5294 31.4054 64.254 31.8339 64.3764 32.293Z" fill="#0AA496"/>
<path id="path1055" d="M49.012 11.2966C50.2975 10.562 50.7566 8.87865 50.0221 7.59315C49.2875 6.30765 47.6041 5.84855 46.3186 6.58312C45.0331 7.31769 44.574 9.00108 45.3086 10.2866C46.0738 11.6027 47.7265 12.0312 49.012 11.2966Z" fill="#00AA75"/>
<path id="path1057" d="M54.4295 20.6623C55.2253 20.2032 55.5008 19.1932 55.0417 18.3974C54.5826 17.6016 53.5725 17.3261 52.7768 17.7852C51.981 18.2443 51.7055 19.2544 52.1646 20.0501C52.5931 20.8459 53.6338 21.1214 54.4295 20.6623Z" fill="#00AA75"/>
<path id="path1059" d="M58.8367 28.3447C59.4488 28.0081 59.6325 27.2429 59.2958 26.6307C58.9591 26.0186 58.1939 25.835 57.5818 26.1716C56.9697 26.5083 56.786 27.2735 57.1227 27.8856C57.49 28.4672 58.2552 28.6814 58.8367 28.3447Z" fill="#00AA75"/>
<path id="path1061" d="M62.4484 33.1194C62.2342 32.7828 61.8057 32.6603 61.4384 32.844C61.1017 33.0582 60.9793 33.4867 61.1629 33.854C61.3772 34.1907 61.8057 34.3131 62.1424 34.1295C62.5403 33.9152 62.6627 33.4561 62.4484 33.1194Z" fill="#00AA75"/>
<path id="path1063" d="M40.6561 17.4486C41.6355 16.4691 41.6355 14.8776 40.6561 13.8981C39.6767 12.9187 38.0851 12.9187 37.1057 13.8981C36.1262 14.8776 36.1262 16.4691 37.1057 17.4486C38.1157 18.428 39.7073 18.428 40.6561 17.4486Z" fill="#4FBA6A"/>
<path id="path1065" d="M48.3384 23.0497C47.7569 22.4681 46.8386 22.4681 46.2877 23.0497C45.7062 23.6312 45.7062 24.5494 46.2877 25.1004C46.8692 25.6819 47.7875 25.6819 48.3384 25.1004C48.8893 24.5188 48.8893 23.6006 48.3384 23.0497Z" fill="#4FBA6A"/>
<path id="path1067" d="M54.674 29.8138C54.2149 29.3547 53.511 29.3547 53.0518 29.8138C52.5927 30.2729 52.5927 30.9769 53.0518 31.436C53.511 31.8951 54.2149 31.8951 54.674 31.436C55.1025 30.9769 55.1025 30.2729 54.674 29.8138Z" fill="#4FBA6A"/>
<path id="path1069" d="M59.3879 35.262C59.143 35.0171 58.7451 35.0477 58.5309 35.2926C58.286 35.5374 58.3166 35.9353 58.5615 36.1496C58.8063 36.3638 59.1736 36.3638 59.4185 36.1496C59.6327 35.9047 59.6327 35.5068 59.3879 35.262Z" fill="#4FBA6A"/>
<path id="path1071" d="M30.9845 26.3553C32.0863 26.998 33.4942 26.6001 34.1064 25.5289C34.7491 24.427 34.3512 23.0191 33.28 22.407C32.1781 21.7642 30.7702 22.1621 30.1581 23.2334C29.5153 24.3046 29.8826 25.7125 30.9845 26.3553Z" fill="#7EC45F"/>
<path id="path1073" d="M43.1045 29.2935C42.4923 28.9569 41.7577 29.1711 41.3905 29.7526C41.0538 30.3648 41.268 31.0994 41.8496 31.4666C42.4617 31.8033 43.1963 31.6197 43.5636 31.0075C43.9002 30.3954 43.686 29.6302 43.1045 29.2935Z" fill="#7EC45F"/>
<path id="path1075" d="M51.0321 34.0989C50.5424 33.8234 49.8996 33.9765 49.6242 34.4968C49.3487 34.9865 49.5017 35.6293 50.0221 35.9047C50.5118 36.1802 51.1545 36.0272 51.43 35.5374C51.7055 35.0477 51.5218 34.405 51.0321 34.0989Z" fill="#7EC45F"/>
<path id="path1077" d="M111.144 40.4957C108.389 40.4957 106.125 42.73 106.125 45.5153C106.125 48.2699 108.359 50.5349 111.144 50.5349C113.899 50.5349 116.133 48.3005 116.164 45.5459C116.133 42.7607 113.899 40.4957 111.144 40.4957Z" fill="#4C609B"/>
<path id="path1079" d="M102.85 45.5154C102.85 43.5259 101.258 41.9343 99.2685 41.9343C97.2791 41.9343 95.6875 43.5259 95.6875 45.5154C95.6875 47.5048 97.2791 49.0964 99.2685 49.0964C101.227 49.0964 102.85 47.5048 102.85 45.5154Z" fill="#4C609B"/>
<path id="path1081" d="M89.995 43.0668C88.6482 43.0668 87.5464 44.1686 87.5464 45.5153C87.5464 46.8621 88.6482 47.9639 89.995 47.9639C91.3417 47.9639 92.4435 46.8621 92.4435 45.5153C92.4435 44.1686 91.3417 43.0668 89.995 43.0668Z" fill="#4C609B"/>
<path id="path1083" d="M84.3936 45.5153C84.3936 44.6277 83.6896 43.9237 82.802 43.9237C81.9144 43.9237 81.2104 44.6277 81.2104 45.5153C81.2104 46.4029 81.9144 47.1068 82.802 47.1068C83.6896 47.1068 84.3936 46.4029 84.3936 45.5153Z" fill="#54669F"/>
<path id="path1085" d="M110.869 52.004C108.42 51.3306 105.911 52.7998 105.237 55.2484C104.564 57.6969 106.033 60.2067 108.482 60.8801C110.93 61.5534 113.44 60.0843 114.113 57.6357V57.6051C114.756 55.1871 113.287 52.6774 110.869 52.004Z" fill="#746FA7"/>
<path id="path1087" d="M97.4018 56.3808C99.0545 56.8399 100.769 55.8299 101.228 54.1771C101.687 52.5243 100.677 50.8103 99.0239 50.3512C97.3711 49.8921 95.6571 50.9021 95.198 52.5549C94.7389 54.2077 95.7184 55.9217 97.4018 56.3808Z" fill="#746FA7"/>
<path id="path1089" d="M88.6481 53.1977C89.8724 53.5343 91.1273 52.7998 91.464 51.5755C91.8007 50.3512 91.0661 49.0963 89.8418 48.7596C88.6175 48.423 87.3626 49.1575 87.026 50.3818C86.7199 51.6061 87.4238 52.861 88.6481 53.1977Z" fill="#746FA7"/>
<path id="path1091" d="M81.9453 50.5349C82.7104 50.7492 83.5062 50.2901 83.7205 49.4943C83.9347 48.7291 83.4756 47.9333 82.6798 47.7191C81.9147 47.5048 81.1189 47.9639 80.9046 48.7597C80.6904 49.4943 81.1495 50.3207 81.9453 50.5349Z" fill="#746FA7"/>
<path id="path1093" d="M107.533 63.0226C105.543 61.8595 103.003 62.5635 101.84 64.553C100.677 66.5424 101.381 69.0828 103.37 70.2459C105.36 71.4089 107.9 70.705 109.063 68.7155C110.195 66.7261 109.522 64.1857 107.533 63.0226Z" fill="#99558E"/>
<path id="path1095" d="M97.7076 62.1656C98.5034 60.7577 98.0443 58.9825 96.6363 58.1867C95.2284 57.3909 93.4532 57.85 92.6574 59.258C91.8616 60.6659 92.3207 62.4411 93.7287 63.2369C95.106 64.0327 96.8812 63.5429 97.7076 62.1656Z" fill="#99558E"/>
<path id="path1097" d="M88.9235 57.1154C89.5051 56.1053 89.1684 54.8505 88.1583 54.2689C87.1483 53.6874 85.8934 54.0241 85.3119 55.0341C84.7304 56.0441 85.067 57.299 86.0771 57.8806C87.0871 58.4315 88.342 58.0948 88.9235 57.1154Z" fill="#99558E"/>
<path id="path1099" d="M82.0983 53.1365C82.4656 52.4937 82.2513 51.6673 81.6086 51.2695C80.9658 50.9022 80.1394 51.1164 79.7416 51.7592C79.3437 52.4019 79.5885 53.2283 80.2313 53.6262H80.2619C80.9046 53.9935 81.731 53.7792 82.0983 53.1365Z" fill="#99558E"/>
<path id="path1101" d="M96.055 72.725C94.5858 74.1942 94.5858 76.5509 96.055 78.02C97.5241 79.4892 99.8809 79.4892 101.35 78.02C102.819 76.5509 102.819 74.1942 101.35 72.725C99.9115 71.2865 97.5241 71.2865 96.055 72.725Z" fill="#AF3379"/>
<path id="path1103" d="M92.2289 68.8991C93.3002 67.8278 93.3002 66.1139 92.2289 65.0732C91.1577 64.002 89.4437 64.002 88.403 65.0732C87.3318 66.1445 87.3318 67.8585 88.403 68.8991C89.4437 69.9703 91.1577 69.9703 92.2289 68.8991Z" fill="#AF3379"/>
<path id="path1105" d="M85.0975 61.7677C85.8321 61.0331 85.8321 59.8395 85.0975 59.1049C84.363 58.3703 83.1693 58.3703 82.4347 59.1049C81.7001 59.8395 81.7001 61.0331 82.4347 61.7371C83.1693 62.5023 84.363 62.5023 85.0975 61.7677Z" fill="#AF3379"/>
<path id="path1107" d="M77.8131 56.2278C78.3028 56.7175 79.0986 56.7175 79.5883 56.2278C80.078 55.7381 80.078 54.9423 79.5883 54.4526C79.0986 53.9629 78.3028 53.9629 77.8131 54.4526C77.3234 54.9423 77.3234 55.7381 77.8131 56.2278Z" fill="#AF3379"/>
<path id="path1109" d="M88.1889 79.0301C86.5055 80.0095 85.924 82.1827 86.9034 83.866C87.8828 85.5494 90.0559 86.131 91.7393 85.1515C93.4227 84.1721 94.0043 81.999 93.0248 80.3156C92.0454 78.6322 89.8723 78.0507 88.1889 79.0301Z" fill="#BE266A"/>
<path id="path1111" d="M86.1688 70.5825C85.4648 69.3888 83.9651 68.9603 82.7408 69.6643C81.5471 70.3682 81.1186 71.868 81.8226 73.0922C82.5265 74.2859 84.0263 74.7144 85.2506 74.0105C86.4442 73.3065 86.8727 71.7761 86.1688 70.5825Z" fill="#BE266A"/>
<path id="path1113" d="M80.2005 65.2263C80.9963 64.7671 81.2718 63.7571 80.8127 62.9613C80.3536 62.1655 79.3435 61.8901 78.5478 62.3492C77.752 62.8083 77.4765 63.8183 77.9356 64.6141C78.3947 65.4099 79.4048 65.6854 80.2005 65.2263Z" fill="#BE266A"/>
<path id="path1115" d="M75.2117 56.5644C74.6608 56.8705 74.4771 57.5745 74.7832 58.1254C75.0893 58.6763 75.7932 58.86 76.3441 58.5539C76.8951 58.2478 77.0787 57.5439 76.7726 56.9929C76.4666 56.442 75.7626 56.2584 75.2117 56.5644Z" fill="#BE266A"/>
<path id="path1117" d="M78.8847 83.1008C77.1095 83.5905 76.0382 85.3964 76.5279 87.1716C77.0177 88.9468 78.8235 90.018 80.5987 89.5283C82.3739 89.0386 83.4451 87.2328 82.9554 85.4576C82.4963 83.6824 80.6599 82.6111 78.8847 83.1008Z" fill="#D4525C"/>
<path id="path1119" d="M77.2622 77.0406C78.4865 76.7039 79.2211 75.449 78.8844 74.2247C78.5477 73.0004 77.2928 72.2658 76.0685 72.6025C74.8443 72.9392 74.1403 74.1941 74.4464 75.4184C74.783 76.6733 76.0379 77.3772 77.2622 77.0406Z" fill="#D4525C"/>
<path id="path1121" d="M75.7627 65.4711C75.5484 64.6447 74.6914 64.155 73.865 64.3693C73.0386 64.5835 72.5489 65.4405 72.7632 66.2669C72.9774 67.0933 73.8344 67.583 74.6608 67.3687C75.5178 67.1851 76.0075 66.3281 75.7627 65.4711Z" fill="#D4525C"/>
<path id="path1123" d="M73.4057 58.6764C73.2527 58.1254 72.6711 57.7887 72.1202 57.9418C71.5693 58.0948 71.2326 58.6764 71.3856 59.2273C71.5387 59.7782 72.0896 60.1149 72.6711 59.9618C73.2221 59.8088 73.5587 59.2273 73.4057 58.6764Z" fill="#D4525C"/>
<path id="path1125" d="M68.784 84.6311C67.07 84.6311 65.6621 86.039 65.6621 87.753C65.6621 89.467 67.07 90.8749 68.784 90.8749C70.498 90.8749 71.906 89.4976 71.906 87.753C71.906 86.039 70.5286 84.6311 68.784 84.6311Z" fill="#E0654F"/>
<path id="path1127" d="M66.7026 75.8775C66.7026 77.0406 67.6209 77.9588 68.7839 77.9588C69.947 77.9588 70.8652 77.0406 70.8652 75.8775C70.8652 74.7145 69.947 73.7963 68.7839 73.7963C67.6515 73.7963 66.7026 74.7145 66.7026 75.8775Z" fill="#E0654F"/>
<path id="path1129" d="M68.7841 68.0422C69.5799 68.0422 70.2532 67.3994 70.2532 66.573C70.2532 65.7466 69.6105 65.1039 68.7841 65.1039C67.9883 65.1039 67.3149 65.7466 67.3149 66.573C67.3455 67.3994 67.9883 68.0422 68.7841 68.0422Z" fill="#E0654F"/>
<path id="path1131" d="M68.7843 58.462C68.264 58.462 67.8354 58.8905 67.8354 59.4109C67.8354 59.9312 68.264 60.3597 68.7843 60.3597C69.3046 60.3597 69.7331 59.9312 69.7331 59.4109C69.7331 58.8905 69.3046 58.462 68.7843 58.462Z" fill="#E0654F"/>
<path id="path1133" d="M58.5919 83.4681C57.031 83.0396 55.4394 83.9884 55.0109 85.5187C54.5824 87.0797 55.5312 88.6713 57.0616 89.0998C58.6226 89.5283 60.2141 88.5795 60.6426 87.0491C61.0711 85.4881 60.1529 83.8966 58.5919 83.4681Z" fill="#F57F2A"/>
<path id="path1135" d="M61.4076 73.0004C60.3976 72.7249 59.3876 73.3371 59.1121 74.3165C58.8366 75.3265 59.4488 76.3366 60.4282 76.612C61.4382 76.8875 62.4483 76.2754 62.7237 75.2959C62.9992 74.3165 62.4177 73.2759 61.4076 73.0004Z" fill="#F57F2A"/>
<path id="path1137" d="M63.6729 64.5529C62.9383 64.3693 62.2037 64.7978 62.0201 65.5017C61.8364 66.2363 62.2649 66.9709 62.9689 67.1545C63.7035 67.3382 64.438 66.9097 64.6217 66.2057C64.8359 65.5017 64.4074 64.7672 63.6729 64.5529Z" fill="#F57F2A"/>
<path id="path1139" d="M65.9989 59.1354C66.1214 58.6763 65.8459 58.2172 65.4174 58.1254C64.9889 58.0336 64.4992 58.2784 64.4074 58.7069C64.3156 59.1354 64.5604 59.6251 64.9889 59.717C65.4174 59.8394 65.8765 59.5945 65.9989 59.1354Z" fill="#F57F2A"/>
<path id="path1141" d="M49.0119 79.7035C47.7264 78.9689 46.0736 79.3974 45.3084 80.6829C44.5739 81.9684 45.0024 83.6212 46.2879 84.3863C47.5734 85.1209 49.2262 84.6924 49.9913 83.4069C50.7565 82.1214 50.2974 80.4686 49.0119 79.7035Z" fill="#F89828"/>
<path id="path1143" d="M54.4295 70.3377C53.6338 69.8786 52.6237 70.1541 52.1646 70.9499C51.7055 71.7456 51.981 72.7557 52.7768 73.2148C53.5725 73.6739 54.5826 73.3984 55.0417 72.6026C55.5008 71.8069 55.2253 70.7968 54.4295 70.3377Z" fill="#F89828"/>
<path id="path1145" d="M57.6126 64.8284C58.2247 65.1651 58.9899 64.9814 59.3266 64.3693C59.6632 63.7571 59.4796 62.992 58.8675 62.6553C58.2553 62.3186 57.4901 62.5023 57.1535 63.1144C56.8168 63.7265 57.0004 64.4917 57.6126 64.8284Z" fill="#F89828"/>
<path id="path1147" d="M62.2035 56.8706C61.8668 56.6563 61.4077 56.7787 61.2241 57.146C61.0098 57.4827 61.1323 57.9418 61.4995 58.1255C61.8362 58.3397 62.2953 58.2173 62.479 57.85C62.6626 57.5439 62.5402 57.0848 62.2035 56.8706Z" fill="#F89828"/>
<path id="path1149" d="M37.1364 73.5513C36.157 74.5308 36.157 76.1223 37.1364 77.1018C38.1159 78.0812 39.7074 78.0812 40.6868 77.1018C41.6663 76.1223 41.6663 74.5308 40.6868 73.5513C39.7074 72.5719 38.1159 72.5719 37.1364 73.5513Z" fill="#FEC127"/>
<path id="path1151" d="M46.2877 65.8997C45.7062 66.4812 45.7062 67.3994 46.2877 67.9503C46.8692 68.5319 47.7875 68.5319 48.3384 67.9503C48.8893 67.3688 48.9199 66.4506 48.3384 65.8997C47.7875 65.3181 46.8386 65.3181 46.2877 65.8997Z" fill="#FEC127"/>
<path id="path1153" d="M53.0518 59.5639C52.5927 60.023 52.5927 60.727 53.0518 61.1861C53.511 61.6452 54.2149 61.6452 54.674 61.1861C55.1331 60.727 55.1331 60.023 54.674 59.5639C54.2149 59.1048 53.4803 59.1048 53.0518 59.5639Z" fill="#FEC127"/>
<path id="path1155" d="M59.3879 54.8505C59.143 54.6056 58.7451 54.6362 58.5309 54.8811C58.286 55.1259 58.3166 55.5238 58.5615 55.7381C58.8063 55.9523 59.1736 55.9523 59.4185 55.7381C59.6327 55.4932 59.6327 55.0953 59.3879 54.8505Z" fill="#FEC127"/>
<path id="path1157" d="M31.0455 64.5835C29.9436 65.2262 29.5764 66.6036 30.2191 67.7054C30.8619 68.8073 32.2392 69.1745 33.341 68.5318C34.4429 67.889 34.8102 66.5117 34.1674 65.4099C33.5553 64.308 32.1474 63.9407 31.0455 64.5835Z" fill="#FED627"/>
<path id="path1159" d="M41.8496 59.5334C41.268 59.8701 41.0538 60.6353 41.3905 61.2474C41.7271 61.8289 42.4923 62.0432 43.1045 61.7065C43.686 61.3698 43.9002 60.6047 43.5636 59.9925C43.2269 59.411 42.4617 59.1967 41.8496 59.5334Z" fill="#FED627"/>
<path id="path1161" d="M49.9915 55.0953C49.5018 55.3708 49.3182 56.0135 49.6242 56.5032C49.8997 56.9929 50.5425 57.1766 51.0322 56.8705C51.5219 56.5951 51.7055 55.9523 51.3995 55.4626C51.124 54.9729 50.4812 54.7892 49.9915 55.0953Z" fill="#FED627"/>
<path id="path1163" d="M26.3933 38.2308H30.0662V52.3713H26.3933V38.2308ZM28.6277 31.9258C27.4952 31.6197 26.3321 32.2931 26.0261 33.4255C25.72 34.558 26.3933 35.7211 27.5258 36.0271C28.6583 36.3332 29.8213 35.6598 30.1274 34.5274C30.4335 33.3949 29.7601 32.2012 28.6277 31.9258ZM41.4214 52.6774C40.5338 52.6774 39.6462 52.5243 38.8198 52.1571C38.0852 51.8204 37.4425 51.3001 36.9528 50.6573V59.4416H33.3718V38.2308H36.9222V40.1897C37.3813 39.4857 38.024 38.9348 38.7892 38.5369C39.585 38.139 40.4726 37.9248 41.3908 37.9248C42.2784 37.9248 43.1354 38.1084 43.9618 38.4451C44.7882 38.7818 45.5228 39.3021 46.1349 39.9142C46.7777 40.5876 47.298 41.3834 47.6347 42.2404C48.0325 43.2198 48.2162 44.2298 48.1856 45.2705C48.2162 46.3111 48.0019 47.3518 47.6041 48.3312C47.2368 49.1882 46.7164 49.984 46.0737 50.6573C44.88 51.9428 43.166 52.6774 41.4214 52.6774ZM40.6868 49.2494C41.2072 49.2494 41.7275 49.1576 42.2172 48.9433C42.6763 48.7291 43.1048 48.4536 43.4721 48.0863C43.8394 47.719 44.1148 47.2905 44.2985 46.8314C44.6964 45.8214 44.6964 44.7195 44.2985 43.7095C44.1148 43.2504 43.8088 42.8219 43.4721 42.4546C43.1048 42.0873 42.6763 41.8119 42.2172 41.5976C41.7275 41.3834 41.2072 41.2915 40.6868 41.2915C39.6462 41.2915 38.6362 41.7201 37.871 42.4546C37.5037 42.8219 37.2282 43.2504 37.0446 43.7095C36.6467 44.7195 36.6467 45.8214 37.0446 46.8008C37.2282 47.2599 37.5037 47.6884 37.871 48.0557C38.6362 48.8515 39.6462 49.28 40.6868 49.2494ZM50.8178 38.2308H54.3682V40.4039C54.6743 39.6388 55.1946 38.996 55.8986 38.5675C56.6331 38.1696 57.4289 37.9554 58.2859 37.986C58.745 37.986 59.1735 38.0472 59.602 38.139C59.9693 38.2308 60.3366 38.3533 60.6733 38.5369L59.3572 42.0873C59.1123 41.9343 58.8369 41.8119 58.5614 41.72C58.1941 41.6282 57.8268 41.567 57.4595 41.567C56.6331 41.5364 55.8374 41.8119 55.2252 42.3322C54.6743 42.8525 54.3988 43.7095 54.3988 44.8726V52.3407H50.8178V38.2308ZM68.6617 52.6774C67.6517 52.6774 66.6417 52.4937 65.6928 52.0959C64.8052 51.7286 64.0094 51.1776 63.3055 50.5043C61.9282 49.127 61.163 47.2599 61.163 45.3011C61.163 44.3217 61.3466 43.3422 61.7139 42.424C62.0812 41.5364 62.6015 40.7406 63.2749 40.0673C66.2438 37.1902 70.9573 37.1902 73.9261 40.0673C75.3035 41.4446 76.0992 43.3116 76.0992 45.2705C76.0992 46.2499 75.9156 47.2293 75.5177 48.1169C75.1504 49.0045 74.5995 49.8003 73.9567 50.4737C73.2834 51.147 72.4876 51.698 71.5694 52.0652C70.6818 52.4631 69.6718 52.6774 68.6617 52.6774ZM68.6923 49.2494C69.2126 49.2494 69.733 49.1576 70.2227 48.9433C70.6818 48.7291 71.0797 48.4536 71.447 48.1169C71.8143 47.7496 72.0897 47.3211 72.2734 46.862C72.6712 45.852 72.6712 44.7502 72.2734 43.7707C72.0897 43.3116 71.8143 42.8831 71.447 42.5158C71.0797 42.1485 70.6818 41.8731 70.2227 41.6894C69.2433 41.2609 68.1414 41.2609 67.1926 41.6894C66.7335 41.9037 66.3356 42.1792 65.9683 42.5158C65.601 42.8831 65.3256 43.3116 65.1419 43.7707C64.744 44.7808 64.744 45.8826 65.1419 46.862C65.3256 47.3211 65.601 47.7496 65.9683 48.1169C66.3356 48.4842 66.7335 48.7597 67.1926 48.9433C67.6517 49.127 68.172 49.2494 68.6923 49.2494ZM0.836426 38.2308H4.50928L7.35573 47.2599L10.7225 38.2308H13.9057L17.2112 47.2599L20.1801 38.2308H23.853L19.0476 52.3713H15.6503L12.2835 43.1586L8.88609 52.3713H5.42749L0.836426 38.2308Z" fill="#351A55"/>
</g>
<defs>
<clipPath id="clip0_3678_11237">
<rect width="115.327" height="90.75" fill="white" transform="translate(0.836426 0.125)"/>
</clipPath>
</defs>
</svg>
